<?xml version="1.0"?>
<svg version="1.1" xmlns="http://www.w3.org/2000/svg" width="140px" height="48px" style=""><path fill="#" d="M1.12,39.12l0-1.68l2.38-0.56l0-15.12l-2.38-0.56l0-1.54l7.98-0.14l0,1.68l-2.66,0.56l0,6.16l9.38,0l0-6.16l-2.66-0.56l0-1.54l7.98-0.14l0,1.68l-2.38,0.56l0,15.12l2.38,0.56l0,1.68l-7.98,0l0-1.68l2.66-0.56l0-6.72l-9.38,0l0,6.72l2.66,0.56l0,1.68l-7.98,0z M37.9008,32.12l-9.66,0c0,3.08,1.652,5.04,4.06,5.04c2.8,0,4.704-1.54,4.704-1.54l0.98,1.456s-2.604,2.324-5.964,2.324c-4.48,0-6.72-2.94-6.72-7.56c0-4.48,2.8-7.84,6.86-7.84s5.88,2.38,5.88,6.58c0,0.7-0.14,1.484-0.14,1.54z M28.3528,30.02l6.72,0c0-2.1-0.812-3.836-3.052-3.836s-3.5,1.736-3.668,3.836z M49.6776,37.58l0,1.54l-7.756,0l0-1.54l2.38-0.7l0-17.08l-2.38-0.56l0-1.54l5.236-0.14l0,19.32z M60.1944,37.58l0,1.54l-7.756,0l0-1.54l2.38-0.7l0-17.08l-2.38-0.56l0-1.54l5.236-0.14l0,19.32z M70.5152,24c4.2,0,6.58,2.94,6.58,7.42c0,4.76-2.8,7.98-7,7.98s-6.72-2.52-6.72-7.56c0-4.76,2.94-7.84,7.14-7.84z M70.3752,26.24c-2.8,0-4.06,1.82-4.06,5.46c0,3.36,1.12,5.46,3.92,5.46s3.92-1.96,3.92-5.6c0-3.08-0.98-5.32-3.78-5.32z"/><path fill="#" d="M59.746,36.276q-0.198,0-0.198-0.684q0-0.252,0.036-0.45q-1.152-0.882-1.152-2.592q0-1.296,0.738-2.934q0.936-2.07,3.654-4.032q3.132-2.232,6.48-2.232q1.8,0,2.736,0.702t0.936,1.746q0,0.648-0.504,1.602q0.144,0.486,0.144,0.99q0,2.25-2.304,4.302q-2.052,1.836-4.338,2.592q3.654,2.628,4.932,2.628q0.288,0,0.522-0.153t0.234-0.36t-0.126-0.387q-0.054-0.126-0.054-0.198q0-0.252,0.315,0.09t0.315,0.72t-0.36,0.63t-0.936,0.252q-1.872,0-5.958-2.898q-1.116,0.252-2.502,0.252t-2.232-0.396q-0.252,0.81-0.378,0.81z M72.238,26.862q0.18-0.432,0.18-0.963t-0.396-1.089q-0.774-1.08-2.736-1.08q-2.718,0-5.13,1.683t-3.762,4.239q-0.99,1.854-0.99,3.33q0,0.936,0.396,1.512q0.198-0.486,0.486-0.882q0.45-0.648,1.17-0.648t1.458,0.414q0.972,0.522,2.484,1.512q1.926-0.72,3.654-2.25q2.286-2.016,2.484-3.906q-0.936,1.026-3.24,2.448l-0.144,0.036q-0.018,0-0.018-0.018q0-0.072,0.486-0.486l1.008-0.828q1.296-1.134,1.89-1.854q-0.126-1.008-0.909-1.683t-1.791-0.981q-0.504-0.126-1.557-0.162t-1.053-0.072t0.036-0.072q0.828-0.27,1.593-0.27t1.755,0.234q1.89,0.45,2.646,1.836z M64.3,35.232q-2.07-1.26-2.826-1.26t-1.026,0.576l-0.18,0.432q0.612,0.486,1.53,0.504l0.36,0q1.044,0,2.142-0.252z M76.03906,29.112q0.486,0,0.486,0.378q0,0.108-0.054,0.216q-1.62,2.25-1.944,3.402q4.194-4.194,5.094-4.194q0.09-0.018,0.162-0.018q0.504,0,0.504,0.45q0,0.09-0.036,0.18t-0.72,0.972q-0.792,0.936-1.341,1.8t-0.549,1.44t0.252,0.576q0.792,0,2.754-2.178q0.036-0.036,0.126-0.162q0.27-0.324,0.324-0.324t0.054,0.18t-0.252,0.468q-2.232,2.538-3.168,2.538q-0.882,0-0.882-0.972t0.72-2.232l1.152-1.872q-1.224,0.9-2.178,1.971t-1.737,2.079t-0.909,1.008q-0.27,0-0.423-0.225t-0.153-0.558t0.234-0.891t0.594-1.35l-1.08,1.134q-0.396,0.396-0.495,0.396t-0.099-0.117t0.144-0.261q0.666-0.666,1.152-1.278q0.468-0.612,1.926-2.34q0.162-0.216,0.342-0.216z M87.16612,29.418l0.252-0.054q0.198,0,0.378,0.162t0.18,0.252t-1.116,1.737t-1.116,2.295q0,0.054,0.018,0.108q0.09,0.414,0.396,0.414q0.936,0,3.42-3.096q0.054-0.072,0.126-0.072t0.072,0.135t-0.162,0.351q-2.304,3.078-3.51,3.078q-0.162,0-0.306-0.054q-0.792-0.306-0.792-1.188q0-0.306,0.072-0.612l-1.116,1.08q-1.062,0.936-1.539,0.936t-0.909-0.306q-0.486-0.36-0.486-0.954q0-1.314,1.836-3.141t3.366-1.827q0.594,0,0.792,0.414q0.054,0.144,0.09,0.243t0.054,0.099z M81.78412,33.846q0,0.648,0.45,0.648q1.044,0,2.844-2.286l1.908-2.628q-0.144-0.252-0.468-0.252q-1.098,0-2.916,1.701t-1.818,2.817z M95.30518,29.346q2.016-3.276,2.808-3.276q0.126,0,0.351,0.081t0.225,0.243q0,0.09-0.09,0.234q-1.44,1.764-2.142,2.646q-2.124,2.682-2.34,3.852q-0.054,0.252-0.054,0.504q0,0.81,0.666,0.81q1.332,0,3.474-2.466q0.18-0.18,0.306-0.207t0.126,0.063t-0.108,0.216q-2.088,2.502-3.708,2.79q-0.09,0.018-0.252,0.018q-0.558,0-0.837-0.387t-0.279-0.837q0-0.504,0.198-1.116l-1.458,1.458q-0.99,0.918-1.557,0.918t-0.945-0.306q-0.45-0.342-0.45-0.954q0-1.314,1.836-3.141t3.366-1.827q0.504,0,0.702,0.27q0.072,0.09,0.162,0.414z M89.99518,33.846q0,0.648,0.45,0.648q0.774,0,2.574-2.124q0.324-0.378,2.16-2.826q-0.126-0.216-0.432-0.216q-1.116,0-2.934,1.701t-1.818,2.817z M104.57824,29.418l0.252-0.054q0.198,0,0.378,0.162t0.18,0.252t-1.116,1.737t-1.116,2.295q0,0.054,0.018,0.108q0.09,0.414,0.396,0.414q0.936,0,3.42-3.096q0.054-0.072,0.126-0.072t0.072,0.135t-0.162,0.351q-2.304,3.078-3.51,3.078q-0.162,0-0.306-0.054q-0.792-0.306-0.792-1.188q0-0.306,0.072-0.612l-1.116,1.08q-1.062,0.936-1.539,0.936t-0.909-0.306q-0.486-0.36-0.486-0.954q0-1.314,1.836-3.141t3.366-1.827q0.594,0,0.792,0.414q0.054,0.144,0.09,0.243t0.054,0.099z M99.19624,33.846q0,0.648,0.45,0.648q1.044,0,2.844-2.286l1.908-2.628q-0.144-0.252-0.468-0.252q-1.098,0-2.916,1.701t-1.818,2.817z"/></svg>
